v 5.460938 -0.028442 -5.542969
vn -0.003922 1.000000 -0.003922
vt 0.731934 0.364258
v 5.226563 -0.028442 -5.941406
vn -0.003922 1.000000 -0.003922
vt 0.791504 0.398438
v 5.359375 -0.028442 -5.527344
vn -0.003922 1.000000 -0.003922
vt 0.729980 0.379395
v 7.464844 -0.028442 -5.808594
vn -0.003922 1.000000 -0.003922
vt 0.767578 0.065918
v 7.281250 -0.028442 -5.960938
vn -0.003922 1.000000 -0.003922
vt 0.791016 0.092773
v 7.054688 -0.028442 -6.042969
vn -0.003922 1.000000 -0.003922
vt 0.803711 0.126953
v 6.890625 -0.028442 -6.070313
vn -0.003922 1.000000 -0.003922
vt 0.808105 0.150879
v 7.554688 -0.028442 -5.023438
vn -0.003922 1.000000 -0.003922
vt 0.651367 0.054199
v 6.714844 -0.028442 -6.101563
vn -0.003922 1.000000 -0.003922
vt 0.812988 0.177246
v 6.199219 -0.028442 -4.804688
vn -0.003922 1.000000 -0.003922
vt 0.621094 0.255859
v 6.582031 -0.028442 -6.117188
vn -0.003922 1.000000 -0.003922
vt 0.815430 0.196777
v 6.433594 -0.028442 -6.132813
vn -0.003922 1.000000 -0.003922
vt 0.817871 0.218750
v 6.226563 -0.028442 -6.117188
vn -0.003922 1.000000 -0.003922
vt 0.815918 0.249512
v 6.093750 -0.028442 -6.117188
vn -0.003922 1.000000 -0.003922
vt 0.816406 0.269043
v 5.609375 -0.028442 -5.347656
vn -0.003922 1.000000 -0.003922
vt 0.703125 0.342773
v 5.949219 -0.028442 -6.101563
vn -0.003922 1.000000 -0.003922
vt 0.814453 0.291016
v 5.578125 -0.028442 -5.468750
vn -0.003922 1.000000 -0.003922
vt 0.720703 0.346680
v 7.597656 -0.028442 -5.554688
vn -0.003922 1.000000 -0.003922
vt 0.730469 0.046387
v 7.539063 -0.028442 -5.703125
vn -0.003922 1.000000 -0.003922
vt 0.752441 0.055176
v 7.613281 -0.028442 -5.187500
vn -0.003922 1.000000 -0.003922
vt 0.675293 0.044922
v 7.628906 -0.028442 -5.410156
vn -0.003922 1.000000 -0.003922
vt 0.708496 0.042480
v 5.769531 -0.028442 -6.070313
vn -0.003922 1.000000 -0.003922
vt 0.810547 0.317383
v 5.593750 -0.028442 -6.027344
vn -0.003922 1.000000 -0.003922
vt 0.804199 0.343750
v 5.429688 -0.028442 -6.000000
vn -0.003922 1.000000 -0.003922
vt 0.800293 0.367676
v 5.062500 -0.028442 -5.925781
vn -0.003922 1.000000 -0.003922
vt 0.789551 0.422852
v 4.828125 -0.028442 -6.000000
vn -0.003922 1.000000 -0.003922
vt 0.801270 0.457520
v 4.828125 -0.028442 -5.378906
vn -0.003922 1.000000 -0.003922
vt 0.708984 0.458984
v 4.636719 -0.028442 -6.058594
vn -0.003922 1.000000 -0.003922
vt 0.810059 0.485840
v 4.398438 -0.028442 -5.480469
vn -0.003922 1.000000 -0.003922
vt 0.725098 0.522217
v 4.472656 -0.028442 -5.421875
vn -0.003922 1.000000 -0.003922
vt 0.716309 0.511230
v 4.429688 -0.028442 -6.085938
vn -0.003922 1.000000 -0.003922
vt 0.814941 0.516602
v 4.238281 -0.028442 -5.527344
vn -0.003922 1.000000 -0.003922
vt 0.731934 0.546143
v 4.238281 -0.028442 -6.101563
vn -0.003922 1.000000 -0.003922
vt 0.817383 0.545166
v 4.089844 -0.028442 -5.542969
vn -0.003922 1.000000 -0.003922
vt 0.734375 0.568115
v 6.316406 -0.028442 -4.671875
vn -0.003922 1.000000 -0.003922
vt 0.601074 0.238770
v 4.058594 -0.028442 -6.101563
vn -0.003922 1.000000 -0.003922
vt 0.817871 0.571289
v 5.210938 -0.028442 -5.480469
vn -0.003922 1.000000 -0.003922
vt 0.723633 0.401855
v 7.527344 -0.028442 -4.890625
vn -0.003922 1.000000 -0.003922
vt 0.631836 0.058594
v 3.837891 -0.028442 -6.042969
vn -0.003922 1.000000 -0.003922
vt 0.809570 0.604248
v 3.912109 -0.028442 -5.542969
vn -0.003922 1.000000 -0.003922
vt 0.734863 0.594238
v 3.603516 -0.028442 -5.953125
vn -0.003922 1.000000 -0.003922
vt 0.796875 0.639648
v 7.539063 -0.028442 -4.757813
vn -0.003922 1.000000 -0.003922
vt 0.612305 0.056641
v 6.507813 -0.028442 -4.421875
vn -0.003922 1.000000 -0.003922
vt 0.563477 0.210938
v 6.050781 -0.028442 -4.847656
vn -0.003922 1.000000 -0.003922
vt 0.627930 0.277832
v 7.746094 -0.028442 -4.390625
vn -0.003922 1.000000 -0.003922
vt 0.557129 0.026855
v 7.671875 -0.028442 -4.523438
vn -0.003922 1.000000 -0.003922
vt 0.576660 0.037598
v 7.746094 -0.028442 -4.109375
vn -0.003922 1.000000 -0.003922
vt 0.515137 0.027344
v 7.597656 -0.028442 -4.640625
vn -0.003922 1.000000 -0.003922
vt 0.594238 0.048340
v 6.550781 -0.028442 -4.214844
vn -0.003922 1.000000 -0.003922
vt 0.532715 0.204590
v 3.410156 -0.028442 -5.894531
vn -0.003922 1.000000 -0.003922
vt 0.788574 0.668213
v 3.646484 -0.028442 -5.480469
vn -0.003922 1.000000 -0.003922
vt 0.726563 0.633789
v 3.808594 -0.028442 -5.511719
vn -0.003922 1.000000 -0.003922
vt 0.730957 0.609619
v 3.248047 -0.028442 -5.878906
vn -0.003922 1.000000 -0.003922
vt 0.786621 0.692383
v 3.367188 -0.028442 -5.410156
vn -0.003922 1.000000 -0.003922
vt 0.716309 0.675537
v 3.470703 -0.028442 -5.410156
vn -0.003922 1.000000 -0.003922
vt 0.715820 0.660400
v 7.671875 -0.028442 -3.933594
vn -0.003922 1.000000 -0.003922
vt 0.489258 0.038574
v 7.777344 -0.028442 -4.289063
vn -0.003922 1.000000 -0.003922
vt 0.541504 0.022461
v 7.613281 -0.028442 -3.816406
vn -0.003922 1.000000 -0.003922
vt 0.471680 0.047363
v 7.421875 -0.028442 -3.476563
vn -0.003922 1.000000 -0.003922
vt 0.421631 0.076660
v 7.496094 -0.028442 -3.593750
vn -0.003922 1.000000 -0.003922
vt 0.439209 0.065430
v 7.527344 -0.028442 -3.683594
vn -0.003922 1.000000 -0.003922
vt 0.452148 0.061035
v 6.417969 -0.028442 -4.554688
vn -0.003922 1.000000 -0.003922
vt 0.583496 0.223633
v 7.347656 -0.028442 -2.828125
vn -0.003922 1.000000 -0.003922
vt 0.325439 0.088867
v 7.347656 -0.028442 -2.990234
vn -0.003922 1.000000 -0.003922
vt 0.349609 0.088379
v 5.625000 -0.028442 -2.798828
vn -0.003922 1.000000 -0.003922
vt 0.324219 0.345215
v 7.347656 -0.028442 -3.136719
vn -0.003922 1.000000 -0.003922
vt 0.371582 0.088379
v 6.359375 -0.028442 -3.904297
vn -0.003922 1.000000 -0.003922
vt 0.487305 0.233887
v 5.625000 -0.028442 -2.576172
vn -0.003922 1.000000 -0.003922
vt 0.291504 0.345703
v 7.394531 -0.028442 -2.679688
vn -0.003922 1.000000 -0.003922
vt 0.303467 0.082520
v 7.437500 -0.028442 -2.517578
vn -0.003922 1.000000 -0.003922
vt 0.279297 0.076172
v 7.597656 -0.028442 -2.134766
vn -0.003922 1.000000 -0.003922
vt 0.222046 0.052734
v 7.554688 -0.028442 -2.267578
vn -0.003922 1.000000 -0.003922
vt 0.241821 0.059082
v 7.480469 -0.028442 -2.384766
vn -0.003922 1.000000 -0.003922
vt 0.259521 0.069824
v 7.628906 -0.028442 -1.972656
vn -0.003922 1.000000 -0.003922
vt 0.197876 0.048828
v 7.570313 -0.028442 -1.500000
vn -0.003922 1.000000 -0.003922
vt 0.127808 0.058594
v 7.628906 -0.028442 -1.632813
vn -0.003922 1.000000 -0.003922
vt 0.147461 0.049316
v 7.628906 -0.028442 -1.809570
vn -0.003922 1.000000 -0.003922
vt 0.173706 0.049316
v 7.464844 -0.028442 -1.382813
vn -0.003922 1.000000 -0.003922
vt 0.110535 0.074219
v 5.578125 -0.028442 -2.400391
vn -0.003922 1.000000 -0.003922
vt 0.265137 0.352539
v 6.640625 -0.028442 -0.939941
vn -0.003922 1.000000 -0.003922
vt 0.046295 0.197266
v 5.503906 -0.028442 -2.089844
vn -0.003922 1.000000 -0.003922
vt 0.219360 0.364258
v 5.535156 -0.028442 -2.267578
vn -0.003922 1.000000 -0.003922
vt 0.245483 0.359375
v 7.421875 -0.028442 -1.264648
vn -0.003922 1.000000 -0.003922
vt 0.093079 0.080566
v 7.539063 -0.028442 -0.939941
vn -0.003922 1.000000 -0.003922
vt 0.044647 0.063965
v 7.511719 -0.028442 -1.057617
vn -0.003922 1.000000 -0.003922
vt 0.062225 0.067871
v 7.496094 -0.028442 -0.851563
vn -0.003922 1.000000 -0.003922
vt 0.031586 0.070801
v 7.453125 -0.028442 -1.161133
vn -0.003922 1.000000 -0.003922
vt 0.077698 0.076660
v 7.230469 -0.028442 -0.762695
vn -0.003922 1.000000 -0.003922
vt 0.018921 0.110352
v 7.378906 -0.028442 -0.777832
vn -0.003922 1.000000 -0.003922
vt 0.020844 0.088379
v 7.054688 -0.028442 -0.762695
vn -0.003922 1.000000 -0.003922
vt 0.019257 0.136230
v 6.742188 -0.028442 -0.910645
vn -0.003922 1.000000 -0.003922
vt 0.041748 0.182129
v 6.890625 -0.028442 -0.821777
vn -0.003922 1.000000 -0.003922
vt 0.028320 0.160645
v 6.214844 -0.028442 -0.866211
vn -0.003922 1.000000 -0.003922
vt 0.036133 0.261230
v 6.375000 -0.028442 -0.895508
vn -0.003922 1.000000 -0.003922
vt 0.040222 0.236816
v 5.816406 -0.028442 -0.999023
vn -0.003922 1.000000 -0.003922
vt 0.056610 0.320313
v 6.523438 -0.028442 -0.925293
vn -0.003922 1.000000 -0.003922
vt 0.044342 0.214844
v 5.519531 -0.028442 -1.500000
vn -0.003922 1.000000 -0.003922
vt 0.131592 0.362793
v 5.695313 -0.028442 -1.117188
vn -0.003922 1.000000 -0.003922
vt 0.074341 0.337402
v 5.593750 -0.028442 -1.293945
vn -0.003922 1.000000 -0.003922
vt 0.100830 0.352539
v 6.050781 -0.028442 -0.866211
vn -0.003922 1.000000 -0.003922
vt 0.036438 0.285156
v 5.902344 -0.028442 -0.925293
vn -0.003922 1.000000 -0.003922
vt 0.045471 0.307129
v 5.476563 -0.028442 -1.898438
vn -0.003922 1.000000 -0.003922
vt 0.190918 0.368652
v 5.476563 -0.028442 -1.750977
vn -0.003922 1.000000 -0.003922
vt 0.168945 0.369141
v 7.378906 -0.028442 -3.298828
vn -0.003922 1.000000 -0.003922
vt 0.395508 0.083496
v 5.609375 -0.028442 -2.960938
vn -0.003922 1.000000 -0.003922
vt 0.348389 0.347168
v 6.492188 -0.028442 -4.023438
vn -0.003922 1.000000 -0.003922
vt 0.504395 0.213867
v 6.007813 -0.028442 -3.771484
vn -0.003922 1.000000 -0.003922
vt 0.468262 0.286621
v 6.183594 -0.028442 -3.859375
vn -0.003922 1.000000 -0.003922
vt 0.480957 0.260254
v 5.609375 -0.028442 -3.240234
vn -0.003922 1.000000 -0.003922
vt 0.389893 0.346680
v 5.578125 -0.028442 -3.107422
vn -0.003922 1.000000 -0.003922
vt 0.370361 0.351074
v 3.072266 -0.028442 -5.910156
vn -0.003922 1.000000 -0.003922
vt 0.791504 0.718506
v 2.820313 -0.028442 -5.984375
vn -0.003922 1.000000 -0.003922
vt 0.802734 0.755615
v 2.953125 -0.028442 -5.542969
vn -0.003922 1.000000 -0.003922
vt 0.736816 0.736816
v 2.585938 -0.028442 -6.011719
vn -0.003922 1.000000 -0.003922
vt 0.807617 0.790649
v 2.806641 -0.028442 -5.542969
vn -0.003922 1.000000 -0.003922
vt 0.736816 0.758667
v 2.378906 -0.028442 -5.968750
vn -0.003922 1.000000 -0.003922
vt 0.801270 0.821411
v 2.673828 -0.028442 -5.496094
vn -0.003922 1.000000 -0.003922
vt 0.730469 0.778442
v 2.246094 -0.028442 -5.925781
vn -0.003922 1.000000 -0.003922
vt 0.794922 0.841187
v 2.554688 -0.028442 -5.421875
vn -0.003922 1.000000 -0.003922
vt 0.719727 0.796143
v 2.142578 -0.028442 -5.925781
vn -0.003922 1.000000 -0.003922
vt 0.794922 0.856567
v 2.009766 -0.028442 -5.968750
vn -0.003922 1.000000 -0.003922
vt 0.801758 0.876160
v 2.025391 -0.028442 -5.378906
vn -0.003922 1.000000 -0.003922
vt 0.714355 0.875061
v 1.847656 -0.028442 -6.011719
vn -0.003922 1.000000 -0.003922
vt 0.809082 0.900208
v 1.744141 -0.028442 -5.410156
vn -0.003922 1.000000 -0.003922
vt 0.719238 0.916626
v 1.700195 -0.028442 -6.011719
vn -0.003922 1.000000 -0.003922
vt 0.809082 0.922119
v 2.246094 -0.028442 -5.378906
vn -0.003922 1.000000 -0.003922
vt 0.713867 0.842163
v 3.085938 -0.028442 -5.496094
vn -0.003922 1.000000 -0.003922
vt 0.729980 0.717041
v 1.523438 -0.028442 -5.968750
vn -0.003922 1.000000 -0.003922
vt 0.802734 0.948486
v 1.508789 -0.028442 -5.511719
vn -0.003922 1.000000 -0.003922
vt 0.734863 0.951508
v 1.390625 -0.028442 -5.867188
vn -0.003922 1.000000 -0.003922
vt 0.787598 0.968384
v 1.331055 -0.028442 -5.734375
vn -0.003922 1.000000 -0.003922
vt 0.768066 0.977402
v 1.390625 -0.028442 -5.601563
vn -0.003922 1.000000 -0.003922
vt 0.748535 0.968887
v 1.626953 -0.028442 -5.437500
vn -0.003922 1.000000 -0.003922
vt 0.723633 0.934143
v 2.378906 -0.028442 -5.378906
vn -0.003922 1.000000 -0.003922
vt 0.713867 0.822510
v 5.652344 -0.028442 -3.373047
vn -0.003922 1.000000 -0.003922
vt 0.409668 0.339844
v 5.859375 -0.028442 -3.654297
vn -0.003922 1.000000 -0.003922
vt 0.450928 0.308594
v 5.742188 -0.028442 -3.521484
vn -0.003922 1.000000 -0.003922
vt 0.431396 0.326172
v 3.205078 -0.028442 -5.453125
vn -0.003922 1.000000 -0.003922
vt 0.723145 0.699707
v 4.636719 -0.028442 -5.363281
vn -0.003922 1.000000 -0.003922
vt 0.707520 0.487305
v 5.742188 -0.028442 -4.980469
vn -0.003922 1.000000 -0.003922
vt 0.648438 0.323730
v 5.886719 -0.028442 -4.878906
vn -0.003922 1.000000 -0.003922
vt 0.632813 0.301758
v 5.652344 -0.028442 -5.171875
vn -0.003922 1.000000 -0.003922
vt 0.676758 0.336426
v 5.035156 -0.028442 -5.421875
vn -0.003922 1.000000 -0.003922
vt 0.715332 0.428223
f 1/1/1 2/2/2 3/3/3
f 4/4/4 5/5/5 6/6/6
f 6/6/6 7/7/7 8/8/8
f 7/7/7 9/9/9 10/10/10
f 9/9/9 11/11/11 10/10/10
f 11/11/11 12/12/12 10/10/10
f 13/13/13 14/14/14 15/15/15
f 14/14/14 16/16/16 17/17/17
f 12/12/12 13/13/13 10/10/10
f 4/4/4 6/6/6 18/18/18
f 7/7/7 10/10/10 8/8/8
f 18/18/18 6/6/6 8/8/8
f 18/18/18 19/19/19 4/4/4
f 20/20/20 21/21/21 8/8/8
f 21/21/21 18/18/18 8/8/8
f 14/14/14 17/17/17 15/15/15
f 16/16/16 22/22/22 17/17/17
f 22/22/22 23/23/23 17/17/17
f 23/23/23 24/24/24 1/1/1
f 24/24/24 2/2/2 1/1/1
f 23/23/23 1/1/1 17/17/17
f 25/25/25 26/26/26 27/27/27
f 26/26/26 28/28/28 29/29/29
f 26/26/26 29/29/29 30/30/30
f 28/28/28 31/31/31 29/29/29
f 29/29/29 31/31/31 32/32/32
f 31/31/31 33/33/33 32/32/32
f 32/32/32 33/33/33 34/34/34
f 8/8/8 10/10/10 35/35/35
f 33/33/33 36/36/36 34/34/34
f 2/2/2 25/25/25 37/37/37
f 38/38/38 8/8/8 35/35/35
f 36/36/36 39/39/39 34/34/34
f 34/34/34 39/39/39 40/40/40
f 39/39/39 41/41/41 40/40/40
f 42/42/42 38/38/38 43/43/43
f 10/10/10 13/13/13 44/44/44
f 45/45/45 46/46/46 47/47/47
f 46/46/46 48/48/48 49/49/49
f 48/48/48 42/42/42 43/43/43
f 41/41/41 50/50/50 51/51/51
f 41/41/41 51/51/51 52/52/52
f 50/50/50 53/53/53 54/54/54
f 51/51/51 50/50/50 55/55/55
f 46/46/46 49/49/49 56/56/56
f 47/47/47 57/57/57 45/45/45
f 58/58/58 56/56/56 49/49/49
f 56/56/56 47/47/47 46/46/46
f 59/59/59 60/60/60 61/61/61
f 61/61/61 58/58/58 49/49/49
f 38/38/38 35/35/35 62/62/62
f 63/63/63 64/64/64 65/65/65
f 64/64/64 66/66/66 67/67/67
f 63/63/63 68/68/68 69/69/69
f 70/70/70 69/69/69 68/68/68
f 71/71/71 72/72/72 73/73/73
f 74/74/74 71/71/71 73/73/73
f 75/75/75 76/76/76 77/77/77
f 77/77/77 74/74/74 78/78/78
f 74/74/74 73/73/73 78/78/78
f 73/73/73 70/70/70 79/79/79
f 78/78/78 73/73/73 80/80/80
f 78/78/78 75/75/75 77/77/77
f 79/79/79 81/81/81 73/73/73
f 81/81/81 79/79/79 82/82/82
f 83/83/83 78/78/78 80/80/80
f 80/80/80 73/73/73 81/81/81
f 84/84/84 85/85/85 86/86/86
f 85/85/85 87/87/87 88/88/88
f 89/89/89 85/85/85 88/88/88
f 89/89/89 86/86/86 85/85/85
f 90/90/90 88/88/88 87/87/87
f 90/90/90 87/87/87 83/83/83
f 91/91/91 92/92/92 83/83/83
f 92/92/92 90/90/90 83/83/83
f 80/80/80 91/91/91 83/83/83
f 93/93/93 94/94/94 95/95/95
f 94/94/94 96/96/96 97/97/97
f 98/98/98 94/94/94 99/99/99
f 100/100/100 93/93/93 101/101/101
f 94/94/94 98/98/98 95/95/95
f 101/101/101 93/93/93 95/95/95
f 96/96/96 80/80/80 81/81/81
f 97/97/97 99/99/99 94/94/94
f 102/102/102 103/103/103 96/96/96
f 103/103/103 97/97/97 96/96/96
f 81/81/81 102/102/102 96/96/96
f 70/70/70 68/68/68 79/79/79
f 68/68/68 63/63/63 65/65/65
f 66/66/66 104/104/104 67/67/67
f 65/65/65 64/64/64 105/105/105
f 104/104/104 59/59/59 106/106/106
f 105/105/105 64/64/64 107/107/107
f 64/64/64 67/67/67 108/108/108
f 59/59/59 61/61/61 106/106/106
f 109/109/109 110/110/110 105/105/105
f 67/67/67 104/104/104 106/106/106
f 111/111/111 112/112/112 113/113/113
f 112/112/112 114/114/114 115/115/115
f 114/114/114 116/116/116 117/117/117
f 116/116/116 118/118/118 119/119/119
f 114/114/114 117/117/117 115/115/115
f 120/120/120 121/121/121 122/122/122
f 121/121/121 123/123/123 124/124/124
f 112/112/112 115/115/115 113/113/113
f 121/121/121 124/124/124 122/122/122
f 123/123/123 125/125/125 124/124/124
f 118/118/118 120/120/120 126/126/126
f 53/53/53 111/111/111 127/127/127
f 117/117/117 116/116/116 119/119/119
f 125/125/125 128/128/128 129/129/129
f 128/128/128 130/130/130 129/129/129
f 130/130/130 131/131/131 132/132/132
f 129/129/129 130/130/130 132/132/132
f 129/129/129 133/133/133 125/125/125
f 133/133/133 124/124/124 125/125/125
f 122/122/122 126/126/126 120/120/120
f 126/126/126 134/134/134 118/118/118
f 134/134/134 119/119/119 118/118/118
f 135/135/135 109/109/109 105/105/105
f 136/136/136 137/137/137 105/105/105
f 137/137/137 135/135/135 105/105/105
f 108/108/108 107/107/107 64/64/64
f 107/107/107 136/136/136 105/105/105
f 111/111/111 113/113/113 127/127/127
f 106/106/106 61/61/61 49/49/49
f 127/127/127 138/138/138 53/53/53
f 138/138/138 54/54/54 53/53/53
f 50/50/50 54/54/54 55/55/55
f 52/52/52 40/40/40 41/41/41
f 43/43/43 49/49/49 48/48/48
f 62/62/62 43/43/43 38/38/38
f 30/30/30 139/139/139 26/26/26
f 140/140/140 141/141/141 142/142/142
f 141/141/141 44/44/44 142/142/142
f 15/15/15 142/142/142 44/44/44
f 26/26/26 139/139/139 27/27/27
f 27/27/27 143/143/143 25/25/25
f 143/143/143 37/37/37 25/25/25
f 15/15/15 44/44/44 13/13/13
f 37/37/37 3/3/3 2/2/2
