v 0.227173 0.001640 0.009445
vn -1.000000 -0.003922 -0.003922
vt 0.187012 0.202637
v 0.227173 0.510254 0.009445
vn -1.000000 -0.003922 -0.003922
vt 0.187012 0.076660
v 0.227173 0.510254 -0.009445
vn -1.000000 -0.003922 -0.003922
vt 0.195313 0.076660
v 0.227173 0.001640 -0.009445
vn -1.000000 -0.003922 -0.003922
vt 0.195313 0.202637
v 0.246948 0.001640 0.009445
vn -0.003922 -0.003922 1.000000
vt 0.186890 0.203125
v 0.246948 0.510254 0.009445
vn -0.003922 -0.003922 1.000000
vt 0.186890 0.077148
v 0.227173 0.510254 0.009445
vn -0.003922 -0.003922 1.000000
vt 0.195190 0.077148
v 0.227173 0.001640 0.009445
vn -0.003922 -0.003922 1.000000
vt 0.195190 0.203125
v 0.246948 0.001640 -0.009445
vn 1.000000 -0.003922 -0.003922
vt 0.187012 0.203125
v 0.246948 0.510254 -0.009445
vn 1.000000 -0.003922 -0.003922
vt 0.187012 0.076660
v 0.246948 0.510254 0.009445
vn 1.000000 -0.003922 -0.003922
vt 0.194824 0.076660
v 0.246948 0.001640 0.009445
vn 1.000000 -0.003922 -0.003922
vt 0.194824 0.203125
v 0.227173 0.001640 -0.009445
vn -0.003922 -0.003922 -1.000000
vt 0.186157 0.203125
v 0.227173 0.510254 -0.009445
vn -0.003922 -0.003922 -1.000000
vt 0.186157 0.077637
v 0.246948 0.510254 -0.009445
vn -0.003922 -0.003922 -1.000000
vt 0.194580 0.077637
v 0.246948 0.001640 -0.009445
vn -0.003922 -0.003922 -1.000000
vt 0.194580 0.203125
v 0.227173 0.510254 -0.009445
vn -0.003922 1.000000 -0.003922
vt 0.228149 0.160156
v 0.227173 0.510254 0.009445
vn -0.003922 1.000000 -0.003922
vt 0.228149 0.148438
v 0.246948 0.510254 0.009445
vn -0.003922 1.000000 -0.003922
vt 0.238037 0.148438
v 0.246948 0.510254 -0.009445
vn -0.003922 1.000000 -0.003922
vt 0.238037 0.160156
v -0.227173 0.001640 0.009445
vn 1.000000 -0.003922 -0.003922
vt 0.187012 0.202637
v -0.227173 0.510254 -0.009445
vn 1.000000 -0.003922 -0.003922
vt 0.195313 0.076660
v -0.227173 0.510254 0.009445
vn 1.000000 -0.003922 -0.003922
vt 0.187012 0.076660
v -0.227173 0.001640 -0.009445
vn 1.000000 -0.003922 -0.003922
vt 0.195313 0.202637
v -0.246948 0.001640 0.009445
vn -0.003922 -0.003922 1.000000
vt 0.186890 0.203125
v -0.227173 0.510254 0.009445
vn -0.003922 -0.003922 1.000000
vt 0.195190 0.077148
v -0.246948 0.510254 0.009445
vn -0.003922 -0.003922 1.000000
vt 0.186890 0.077148
v -0.227173 0.001640 0.009445
vn -0.003922 -0.003922 1.000000
vt 0.195190 0.203125
v -0.246948 0.001640 -0.009445
vn -1.000000 -0.003922 -0.003922
vt 0.187012 0.203125
v -0.246948 0.510254 0.009445
vn -1.000000 -0.003922 -0.003922
vt 0.194824 0.076660
v -0.246948 0.510254 -0.009445
vn -1.000000 -0.003922 -0.003922
vt 0.187012 0.076660
v -0.246948 0.001640 0.009445
vn -1.000000 -0.003922 -0.003922
vt 0.194824 0.203125
v -0.227173 0.001640 -0.009445
vn -0.003922 -0.003922 -1.000000
vt 0.186157 0.203125
v -0.246948 0.510254 -0.009445
vn -0.003922 -0.003922 -1.000000
vt 0.194580 0.077637
v -0.227173 0.510254 -0.009445
vn -0.003922 -0.003922 -1.000000
vt 0.186157 0.077637
v -0.246948 0.001640 -0.009445
vn -0.003922 -0.003922 -1.000000
vt 0.194580 0.203125
v -0.227173 0.510254 -0.009445
vn -0.003922 1.000000 -0.003922
vt 0.228149 0.160156
v -0.246948 0.510254 0.009445
vn -0.003922 1.000000 -0.003922
vt 0.238037 0.148438
v -0.227173 0.510254 0.009445
vn -0.003922 1.000000 -0.003922
vt 0.228149 0.148438
v -0.246948 0.510254 -0.009445
vn -0.003922 1.000000 -0.003922
vt 0.238037 0.160156
v 0.227173 -0.006001 -0.049774
vn -1.000000 -0.003922 -0.003922
vt 0.079712 0.202637
v 0.227173 -0.006001 0.049805
vn -1.000000 -0.003922 -0.003922
vt 0.079712 0.077637
v 0.227173 0.012886 0.049805
vn -1.000000 -0.003922 -0.003922
vt 0.089111 0.077637
v 0.227173 0.012886 -0.049774
vn -1.000000 -0.003922 -0.003922
vt 0.089111 0.202637
v 0.246948 -0.006001 -0.049774
vn -0.003922 -1.000000 -0.003922
vt 0.089172 0.077637
v 0.246948 -0.006001 0.049805
vn -0.003922 -1.000000 -0.003922
vt 0.089172 0.202637
v 0.227173 -0.006001 0.049805
vn -0.003922 -1.000000 -0.003922
vt 0.079895 0.202637
v 0.227173 -0.006001 -0.049774
vn -0.003922 -1.000000 -0.003922
vt 0.079895 0.077637
v 0.246948 0.012886 -0.049774
vn 1.000000 -0.003922 -0.003922
vt 0.089172 0.077637
v 0.246948 0.012886 0.049805
vn 1.000000 -0.003922 -0.003922
vt 0.089172 0.202637
v 0.246948 -0.006001 0.049805
vn 1.000000 -0.003922 -0.003922
vt 0.079773 0.202637
v 0.246948 -0.006001 -0.049774
vn 1.000000 -0.003922 -0.003922
vt 0.079773 0.077637
v 0.227173 0.012886 -0.049774
vn -0.003922 0.701961 -0.709804
vt 0.079834 0.202637
v 0.227173 0.012886 0.049805
vn -0.003922 1.000000 -0.003922
vt 0.079834 0.077637
v 0.246948 0.012886 0.049805
vn -0.003922 1.000000 -0.003922
vt 0.089111 0.077637
v 0.246948 0.012886 -0.049774
vn -0.003922 0.701961 -0.709804
vt 0.089111 0.202637
v 0.227173 0.012886 0.049805
vn -0.003922 -0.003922 1.000000
vt 0.146729 0.143066
v 0.227173 -0.006001 0.049805
vn -0.003922 -0.003922 1.000000
vt 0.146606 0.106934
v 0.246948 -0.006001 0.049805
vn -0.003922 -0.003922 1.000000
vt 0.153687 0.106934
v 0.246948 0.012886 0.049805
vn -0.003922 -0.003922 1.000000
vt 0.153687 0.143066
v 0.246948 -0.006001 -0.049774
vn -0.003922 -0.003922 -1.000000
vt 0.160889 0.142578
v 0.227173 0.012886 -0.049774
vn -0.003922 0.701961 -0.709804
vt 0.153809 0.106934
v 0.246948 0.012886 -0.049774
vn -0.003922 0.701961 -0.709804
vt 0.160889 0.106934
v -0.227173 -0.006001 -0.049774
vn 1.000000 -0.003922 -0.003922
vt 0.079712 0.202637
v -0.227173 0.012886 0.049805
vn 1.000000 -0.003922 -0.003922
vt 0.089111 0.077637
v -0.227173 -0.006001 0.049805
vn 1.000000 -0.003922 -0.003922
vt 0.079712 0.077637
v -0.227173 0.012886 -0.049774
vn 1.000000 -0.003922 -0.003922
vt 0.089111 0.202637
v -0.246948 -0.006001 -0.049774
vn -0.003922 -1.000000 -0.003922
vt 0.089172 0.077637
v -0.227173 -0.006001 0.049805
vn -0.003922 -1.000000 -0.003922
vt 0.079895 0.202637
v -0.246948 -0.006001 0.049805
vn -0.003922 -1.000000 -0.003922
vt 0.089172 0.202637
v -0.227173 -0.006001 -0.049774
vn -0.003922 -1.000000 -0.003922
vt 0.079895 0.077637
v -0.246948 0.012886 -0.049774
vn -1.000000 -0.003922 -0.003922
vt 0.089172 0.077637
v -0.246948 -0.006001 0.049805
vn -1.000000 -0.003922 -0.003922
vt 0.079773 0.202637
v -0.246948 0.012886 0.049805
vn -1.000000 -0.003922 -0.003922
vt 0.089172 0.202637
v -0.246948 -0.006001 -0.049774
vn -1.000000 -0.003922 -0.003922
vt 0.079773 0.077637
v -0.227173 0.012886 -0.049774
vn -0.003922 0.701961 -0.709804
vt 0.079834 0.202637
v -0.246948 0.012886 0.049805
vn -0.003922 1.000000 -0.003922
vt 0.089111 0.077637
v -0.227173 0.012886 0.049805
vn -0.003922 1.000000 -0.003922
vt 0.079834 0.077637
v -0.246948 0.012886 -0.049774
vn -0.003922 0.701961 -0.709804
vt 0.089111 0.202637
v -0.227173 0.012886 0.049805
vn -0.003922 -0.003922 1.000000
vt 0.146729 0.143066
v -0.246948 -0.006001 0.049805
vn -0.003922 -0.003922 1.000000
vt 0.153687 0.106934
v -0.227173 -0.006001 0.049805
vn -0.003922 -0.003922 1.000000
vt 0.146606 0.106934
v -0.246948 0.012886 0.049805
vn -0.003922 -0.003922 1.000000
vt 0.153687 0.143066
v -0.227173 0.012886 -0.049774
vn -0.003922 0.701961 -0.709804
vt 0.153809 0.106934
v -0.246948 -0.006001 -0.049774
vn -0.003922 -0.003922 -1.000000
vt 0.160889 0.142578
v -0.246948 0.012886 -0.049774
vn -0.003922 0.701961 -0.709804
vt 0.160889 0.106934
v 0.227173 -0.006001 -0.049774
vn -0.003922 -0.003922 -1.000000
vt 0.153931 0.143066
v -0.227173 -0.006001 -0.049774
vn -0.003922 -0.003922 -1.000000
vt 0.153931 0.143066
v 0.118774 0.496826 -0.031372
vn -0.003922 -0.003922 1.000000
vt 0.205811 0.108398
v 0.000289 0.477051 0.006306
vn -0.003922 -0.003922 1.000000
vt 0.197144 0.139648
v 0.118774 0.477051 -0.031372
vn -0.003922 -0.003922 1.000000
vt 0.197144 0.108398
v 0.237305 0.477051 0.006306
vn -0.309804 -0.003922 0.952941
vt 0.197144 0.077637
v 0.237305 0.496826 0.006306
vn -0.309804 -0.003922 0.952941
vt 0.205811 0.077637
v -0.118225 0.477051 -0.030441
vn -0.003922 -1.000000 -0.003922
vt 0.205566 0.170410
v -0.236694 0.477051 -0.006306
vn -0.003922 -1.000000 -0.003922
vt 0.197388 0.201660
v -0.118225 0.477051 -0.043060
vn -0.003922 -1.000000 -0.003922
vt 0.197388 0.170410
v -0.236694 0.496826 -0.006306
vn -0.003922 1.000000 -0.003922
vt 0.206055 0.201172
v -0.118225 0.496826 -0.030441
vn -0.003922 1.000000 -0.003922
vt 0.197388 0.169922
v -0.118225 0.496826 -0.043060
vn -0.003922 1.000000 -0.003922
vt 0.206055 0.169922
v -0.118225 0.496826 -0.030441
vn -0.003922 -0.003922 1.000000
vt 0.205811 0.170410
v 0.000289 0.496826 0.006306
vn -0.003922 -0.003922 1.000000
vt 0.205811 0.139648
v -0.236694 0.496826 0.006306
vn 0.294118 -0.003922 0.952941
vt 0.205811 0.201660
v -0.118225 0.477051 -0.030441
vn -0.003922 -0.003922 1.000000
vt 0.197144 0.170410
v -0.236694 0.477051 -0.006306
vn -0.301961 -0.003922 -0.960784
vt 0.205200 0.201172
v -0.118225 0.496826 -0.043060
vn -0.003922 -0.003922 -1.000000
vt 0.196289 0.170410
v -0.118225 0.477051 -0.043060
vn -0.003922 -0.003922 -1.000000
vt 0.205200 0.170410
v 0.237305 0.477051 -0.006302
vn 1.000000 -0.003922 -0.003922
vt 0.840332 0.085449
v 0.237305 0.496826 0.006306
vn 1.000000 -0.003922 -0.003922
vt 0.314209 0.469727
v 0.237305 0.477051 0.006306
vn 1.000000 -0.003922 -0.003922
vt 0.355469 0.469727
v 0.000289 0.477051 -0.006302
vn -0.003922 -0.003922 -1.000000
vt 0.205200 0.139648
v 0.118774 0.496826 -0.043976
vn -0.003922 -0.003922 -1.000000
vt 0.196289 0.108887
v 0.118774 0.477051 -0.043976
vn -0.003922 -0.003922 -1.000000
vt 0.205200 0.108887
v 0.237305 0.496826 -0.006302
vn 0.301961 -0.003922 -0.960784
vt 0.196289 0.078125
v 0.237305 0.477051 -0.006302
vn 0.301961 -0.003922 -0.960784
vt 0.205200 0.078125
v 0.000289 0.496826 -0.006302
vn -0.003922 -0.003922 -1.000000
vt 0.196289 0.139648
v 0.000289 0.496826 -0.006302
vn -0.003922 1.000000 -0.003922
vt 0.206055 0.139160
v 0.118774 0.496826 -0.031372
vn -0.003922 1.000000 -0.003922
vt 0.197388 0.107910
v 0.118774 0.496826 -0.043976
vn -0.003922 1.000000 -0.003922
vt 0.206055 0.107910
v 0.237305 0.496826 -0.006302
vn -0.003922 1.000000 -0.003922
vt 0.206055 0.076660
v 0.237305 0.496826 0.006306
vn -0.003922 1.000000 -0.003922
vt 0.197388 0.076660
v 0.000289 0.496826 0.006306
vn -0.003922 1.000000 -0.003922
vt 0.197388 0.139160
v 0.118774 0.477051 -0.031372
vn -0.003922 -1.000000 -0.003922
vt 0.205566 0.108398
v 0.000289 0.477051 -0.006302
vn -0.003922 -1.000000 -0.003922
vt 0.197388 0.139160
v 0.118774 0.477051 -0.043976
vn -0.003922 -1.000000 -0.003922
vt 0.197388 0.108398
v 0.000289 0.477051 0.006306
vn -0.003922 -1.000000 -0.003922
vt 0.205566 0.139160
v 0.237305 0.477051 -0.006302
vn -0.003922 -1.000000 -0.003922
vt 0.197388 0.077148
v 0.237305 0.477051 0.006306
vn -0.003922 -1.000000 -0.003922
vt 0.205566 0.077148
v -0.236694 0.477051 0.006306
vn -0.003922 -1.000000 -0.003922
vt 0.205566 0.201660
v -0.236694 0.496826 0.006306
vn -0.003922 1.000000 -0.003922
vt 0.197388 0.201172
v -0.236694 0.477051 0.006306
vn 0.294118 -0.003922 0.952941
vt 0.197144 0.201660
v -0.236694 0.496826 -0.006306
vn -0.301961 -0.003922 -0.960784
vt 0.196289 0.201172
v 0.237305 0.496826 -0.006302
vn 1.000000 -0.003922 -0.003922
vt 0.809570 0.085449
v 0.118774 0.058868 -0.031372
vn -0.003922 -0.003922 1.000000
vt 0.205811 0.108398
v 0.000289 0.039124 0.006306
vn -0.003922 -0.003922 1.000000
vt 0.197144 0.139648
v 0.118774 0.039124 -0.031372
vn -0.003922 -0.003922 1.000000
vt 0.197144 0.108398
v 0.237305 0.039124 0.006306
vn -0.309804 -0.003922 0.952941
vt 0.197144 0.077637
v 0.237305 0.058868 0.006306
vn -0.309804 -0.003922 0.952941
vt 0.205811 0.077637
v -0.118225 0.039124 -0.030441
vn -0.003922 -1.000000 -0.003922
vt 0.205566 0.170410
v -0.236694 0.039124 -0.006306
vn -0.003922 -1.000000 -0.003922
vt 0.197388 0.201660
v -0.118225 0.039124 -0.043060
vn -0.003922 -1.000000 -0.003922
vt 0.197388 0.170410
v -0.236694 0.058868 -0.006306
vn -0.003922 1.000000 -0.003922
vt 0.206055 0.201172
v -0.118225 0.058868 -0.030441
vn -0.003922 1.000000 -0.003922
vt 0.197388 0.169922
v -0.118225 0.058868 -0.043060
vn -0.003922 1.000000 -0.003922
vt 0.206055 0.169922
v -0.118225 0.058868 -0.030441
vn -0.003922 -0.003922 1.000000
vt 0.205811 0.170410
v 0.000289 0.058868 0.006306
vn -0.003922 -0.003922 1.000000
vt 0.205811 0.139648
v -0.236694 0.058868 0.006306
vn 0.294118 -0.003922 0.952941
vt 0.205811 0.201660
v -0.118225 0.039124 -0.030441
vn -0.003922 -0.003922 1.000000
vt 0.197144 0.170410
v -0.118225 0.039124 -0.043060
vn -0.003922 -0.003922 -1.000000
vt 0.205200 0.170410
v -0.236694 0.058868 -0.006306
vn -0.301961 -0.003922 -0.960784
vt 0.196289 0.201172
v -0.118225 0.058868 -0.043060
vn -0.003922 -0.003922 -1.000000
vt 0.196289 0.170410
v 0.237305 0.039124 -0.006302
vn 1.000000 -0.003922 -0.003922
vt 0.840332 0.085449
v 0.237305 0.058868 0.006306
vn 1.000000 -0.003922 -0.003922
vt 0.314209 0.469727
v 0.237305 0.039124 0.006306
vn 1.000000 -0.003922 -0.003922
vt 0.355469 0.469727
v 0.118774 0.039124 -0.031372
vn -0.003922 -1.000000 -0.003922
vt 0.205566 0.108398
v 0.000289 0.039124 -0.006302
vn -0.003922 -1.000000 -0.003922
vt 0.197388 0.139160
v 0.118774 0.039124 -0.043976
vn -0.003922 -1.000000 -0.003922
vt 0.197388 0.108398
v 0.000289 0.039124 0.006306
vn -0.003922 -1.000000 -0.003922
vt 0.205566 0.139160
v 0.237305 0.039124 -0.006302
vn -0.003922 -1.000000 -0.003922
vt 0.197388 0.077148
v 0.237305 0.039124 0.006306
vn -0.003922 -1.000000 -0.003922
vt 0.205566 0.077148
v 0.000289 0.058868 -0.006302
vn -0.003922 1.000000 -0.003922
vt 0.206055 0.139160
v 0.118774 0.058868 -0.031372
vn -0.003922 1.000000 -0.003922
vt 0.197388 0.107910
v 0.118774 0.058868 -0.043976
vn -0.003922 1.000000 -0.003922
vt 0.206055 0.107910
v 0.237305 0.058868 -0.006302
vn -0.003922 1.000000 -0.003922
vt 0.206055 0.076660
v 0.237305 0.058868 0.006306
vn -0.003922 1.000000 -0.003922
vt 0.197388 0.076660
v 0.000289 0.058868 0.006306
vn -0.003922 1.000000 -0.003922
vt 0.197388 0.139160
v 0.000289 0.039124 -0.006302
vn -0.003922 -0.003922 -1.000000
vt 0.205200 0.139648
v 0.118774 0.058868 -0.043976
vn -0.003922 -0.003922 -1.000000
vt 0.196289 0.108887
v 0.118774 0.039124 -0.043976
vn -0.003922 -0.003922 -1.000000
vt 0.205200 0.108887
v 0.237305 0.058868 -0.006302
vn 0.301961 -0.003922 -0.960784
vt 0.196289 0.078125
v 0.237305 0.039124 -0.006302
vn 0.301961 -0.003922 -0.960784
vt 0.205200 0.078125
v 0.000289 0.058868 -0.006302
vn -0.003922 -0.003922 -1.000000
vt 0.196289 0.139648
v -0.236694 0.039124 0.006306
vn -0.003922 -1.000000 -0.003922
vt 0.205566 0.201660
v -0.236694 0.058868 0.006306
vn -0.003922 1.000000 -0.003922
vt 0.197388 0.201172
v -0.236694 0.039124 0.006306
vn 0.294118 -0.003922 0.952941
vt 0.197144 0.201660
v -0.236694 0.039124 -0.006306
vn -0.301961 -0.003922 -0.960784
vt 0.205200 0.201172
v 0.237305 0.058868 -0.006302
vn 1.000000 -0.003922 -0.003922
vt 0.809570 0.085449
v 0.117554 0.480713 -0.036560
vn -0.003922 -0.003922 1.000000
vt 0.680664 0.565186
v 0.000965 0.480713 0.001138
vn -0.003922 -0.003922 1.000000
vt 0.786133 0.565430
v 0.000965 0.048737 0.001075
vn -0.003922 -0.003922 1.000000
vt 0.786133 0.140625
v -0.115662 0.480713 -0.035583
vn -0.003922 -0.003922 1.000000
vt 0.892090 0.565918
v -0.232300 0.480713 0.001170
vn 0.294118 -0.003922 0.952941
vt 0.998047 0.566162
v -0.232300 0.048737 0.001107
vn 0.294118 -0.003922 0.952941
vt 0.997559 0.139648
v 0.234131 0.048737 0.001044
vn -0.309804 -0.003922 0.945098
vt 0.574707 0.139648
v 0.234131 0.480713 0.001107
vn -0.309804 -0.003922 0.945098
vt 0.574707 0.566162
v 0.117554 0.048737 -0.036621
vn -0.003922 -0.003922 1.000000
vt 0.680176 0.140137
v -0.115662 0.048737 -0.035645
vn -0.003922 -0.003922 1.000000
vt 0.892090 0.140625
v 0.117554 0.480713 -0.038849
vn -0.003922 -0.003922 -1.000000
vt 0.680664 0.565186
v 0.000965 0.048737 -0.001201
vn -0.003922 -0.003922 -1.000000
vt 0.786133 0.140625
v 0.000965 0.480713 -0.001137
vn -0.003922 -0.003922 -1.000000
vt 0.786133 0.565430
v -0.115662 0.480713 -0.037872
vn -0.003922 -0.003922 -1.000000
vt 0.892090 0.565918
v -0.232300 0.048737 -0.001169
vn -0.301961 -0.003922 -0.960784
vt 0.997559 0.139648
v -0.232300 0.480713 -0.001105
vn -0.301961 -0.003922 -0.960784
vt 0.998047 0.566162
v 0.234131 0.048737 -0.001232
vn 0.301961 -0.003922 -0.952941
vt 0.574707 0.139648
v 0.234131 0.480713 -0.001168
vn 0.301961 -0.003922 -0.952941
vt 0.574707 0.566162
v 0.117554 0.048737 -0.038910
vn -0.003922 -0.003922 -1.000000
vt 0.680176 0.140137
v -0.115662 0.048737 -0.037933
vn -0.003922 -0.003922 -1.000000
vt 0.892090 0.140625
f 1/1/1 2/2/2 3/3/3
f 3/3/3 4/4/4 1/1/1
f 5/5/5 6/6/6 7/7/7
f 7/7/7 8/8/8 5/5/5
f 9/9/9 10/10/10 11/11/11
f 11/11/11 12/12/12 9/9/9
f 13/13/13 14/14/14 15/15/15
f 15/15/15 16/16/16 13/13/13
f 17/17/17 18/18/18 19/19/19
f 19/19/19 20/20/20 17/17/17
f 21/21/21 22/22/22 23/23/23
f 22/22/22 21/21/21 24/24/24
f 25/25/25 26/26/26 27/27/27
f 26/26/26 25/25/25 28/28/28
f 29/29/29 30/30/30 31/31/31
f 30/30/30 29/29/29 32/32/32
f 33/33/33 34/34/34 35/35/35
f 34/34/34 33/33/33 36/36/36
f 37/37/37 38/38/38 39/39/39
f 38/38/38 37/37/37 40/40/40
f 41/41/41 42/42/42 43/43/43
f 43/43/43 44/44/44 41/41/41
f 45/45/45 46/46/46 47/47/47
f 47/47/47 48/48/48 45/45/45
f 49/49/49 50/50/50 51/51/51
f 51/51/51 52/52/52 49/49/49
f 53/53/53 54/54/54 55/55/55
f 55/55/55 56/56/56 53/53/53
f 57/57/57 58/58/58 59/59/59
f 59/59/59 60/60/60 57/57/57
f 61/61/61 62/62/62 63/63/63
f 64/64/64 65/65/65 66/66/66
f 65/65/65 64/64/64 67/67/67
f 68/68/68 69/69/69 70/70/70
f 69/69/69 68/68/68 71/71/71
f 72/72/72 73/73/73 74/74/74
f 73/73/73 72/72/72 75/75/75
f 76/76/76 77/77/77 78/78/78
f 77/77/77 76/76/76 79/79/79
f 80/80/80 81/81/81 82/82/82
f 81/81/81 80/80/80 83/83/83
f 84/84/84 85/85/85 86/86/86
f 61/61/61 87/87/87 62/62/62
f 84/84/84 88/88/88 85/85/85
f 89/89/89 90/90/90 91/91/91
f 89/89/89 92/92/92 93/93/93
f 94/94/94 95/95/95 96/96/96
f 97/97/97 98/98/98 99/99/99
f 100/100/100 90/90/90 101/101/101
f 102/102/102 103/103/103 100/100/100
f 104/104/104 105/105/105 106/106/106
f 107/107/107 108/108/108 109/109/109
f 110/110/110 111/111/111 112/112/112
f 112/112/112 113/113/113 114/114/114
f 106/106/106 115/115/115 110/110/110
f 116/116/116 117/117/117 118/118/118
f 119/119/119 117/117/117 120/120/120
f 116/116/116 98/98/98 121/121/121
f 122/122/122 123/123/123 124/124/124
f 94/94/94 123/123/123 125/125/125
f 122/122/122 126/126/126 127/127/127
f 89/89/89 101/101/101 90/90/90
f 89/89/89 91/91/91 92/92/92
f 94/94/94 128/128/128 95/95/95
f 97/97/97 129/129/129 98/98/98
f 100/100/100 103/103/103 90/90/90
f 102/102/102 130/130/130 103/103/103
f 104/104/104 131/131/131 105/105/105
f 107/107/107 132/132/132 108/108/108
f 110/110/110 115/115/115 111/111/111
f 112/112/112 111/111/111 113/113/113
f 106/106/106 105/105/105 115/115/115
f 116/116/116 121/121/121 117/117/117
f 119/119/119 118/118/118 117/117/117
f 116/116/116 99/99/99 98/98/98
f 122/122/122 125/125/125 123/123/123
f 94/94/94 96/96/96 123/123/123
f 122/122/122 124/124/124 126/126/126
f 133/133/133 134/134/134 135/135/135
f 133/133/133 136/136/136 137/137/137
f 138/138/138 139/139/139 140/140/140
f 141/141/141 142/142/142 143/143/143
f 144/144/144 134/134/134 145/145/145
f 146/146/146 147/147/147 144/144/144
f 148/148/148 149/149/149 150/150/150
f 151/151/151 152/152/152 153/153/153
f 154/154/154 155/155/155 156/156/156
f 138/138/138 155/155/155 157/157/157
f 154/154/154 158/158/158 159/159/159
f 160/160/160 161/161/161 162/162/162
f 163/163/163 161/161/161 164/164/164
f 160/160/160 142/142/142 165/165/165
f 166/166/166 167/167/167 168/168/168
f 168/168/168 169/169/169 170/170/170
f 166/166/166 150/150/150 171/171/171
f 133/133/133 145/145/145 134/134/134
f 133/133/133 135/135/135 136/136/136
f 138/138/138 172/172/172 139/139/139
f 141/141/141 173/173/173 142/142/142
f 144/144/144 147/147/147 134/134/134
f 146/146/146 174/174/174 147/147/147
f 148/148/148 175/175/175 149/149/149
f 151/151/151 176/176/176 152/152/152
f 154/154/154 157/157/157 155/155/155
f 138/138/138 140/140/140 155/155/155
f 154/154/154 156/156/156 158/158/158
f 160/160/160 165/165/165 161/161/161
f 163/163/163 162/162/162 161/161/161
f 160/160/160 143/143/143 142/142/142
f 166/166/166 171/171/171 167/167/167
f 168/168/168 167/167/167 169/169/169
f 166/166/166 148/148/148 150/150/150
f 177/177/177 178/178/178 179/179/179
f 180/180/180 181/181/181 182/182/182
f 179/179/179 178/178/178 180/180/180
f 183/183/183 184/184/184 177/177/177
f 177/177/177 179/179/179 185/185/185
f 180/180/180 182/182/182 186/186/186
f 179/179/179 180/180/180 186/186/186
f 183/183/183 177/177/177 185/185/185
f 187/187/187 188/188/188 189/189/189
f 190/190/190 191/191/191 192/192/192
f 188/188/188 190/190/190 189/189/189
f 193/193/193 187/187/187 194/194/194
f 187/187/187 195/195/195 188/188/188
f 190/190/190 196/196/196 191/191/191
f 188/188/188 196/196/196 190/190/190
f 193/193/193 195/195/195 187/187/187
